<?xml version="1.0" standalone="no"?><!DOCTYPE svg PUBLIC "-//W3C//DTD SVG 1.1//EN" "http://www.w3.org/Graphics/SVG/1.1/DTD/svg11.dtd"><svg t="1759054781269" class="icon" viewBox="0 0 1024 1024" version="1.1" xmlns="http://www.w3.org/2000/svg" p-id="2737" width="200" height="200">
  <style>
    .icon-bg { fill: var(--color-background); }
    .icon-path { fill: var(--color-foreground); }
  </style>
  <!--  下面这个矩形元素作为背景 -->
  <rect width="100%" height="100%" class="icon-bg"/>
  <path class="icon-path" d="M294.115 499.57c75 33 110 52 127 74 8 10 11 23 11 35 0 19-8 37-19 37-14 0-18-5-29-30-14-34-47-74-90-102v304c0 105 1 129 2 145v5c0 11-4 16-28 31-13 8-19 11-22 11s-3-1-3-4v-3c4-39 5-72 5-187v-275c-57 70-123 140-193 195l-9-10c150-157 216-262 286-398h-167c-40 0-50 1-65 8l-31-33c26 2 51 3 74 3h183l31-42 61 45c5 4 8 6 8 9 0 2-4 5-11 8-29 12-32 15-44 35-21 37-47 78-77 119v20z m-102-412c35 18 123 64 123 110 0 25-17 52-32 52-11 0-18-3-23-32-7-42-21-73-75-121l7-9z m756 206c3 2 4 4 4 6s-1 4-5 6l-34 19v291c0 41 1 87 3 112v4c0 16-43 33-45 33-4 0-5-3-5-10v-71h-154v184c0 15 2 91 2 108 0 15-48 37-52 37-3 0-4-2-4-6v-3c5-63 7-123 7-199v-121h-152v35c0 13-2 16-20 27-15 9-23 13-26 13s-3-3-3-6c2-38 2-66 2-139v-282c0-34-1-64-3-95l59 47h143v-64c0-72-1-111-3-147l78 42c5 3 8 5 8 7s-2 3-5 5l-31 18v139h143l30-43 63 53z m-283 175v-163h-152v163h152z m0 193v-171h-152v171h152z m201-193v-163h-154v163h154z m0 193v-171h-154v171h154z" p-id="2738"></path>
</svg>154z" p-id="2738"></path>
</svg>